<?xml version="1.0" encoding="UTF-8"?>
<svg id="Layer_2" data-name="Layer 2" xmlns="http://www.w3.org/2000/svg" viewBox="0 0 445.46 101.88">
  <defs>
    <style>
      .cls-1 {
        fill: #232020;
      }

      .cls-2 {
        fill: #0e635f;
      }

      .cls-3 {
        fill: #d4c09c;
      }
    </style>
  </defs>
  <g id="Layer_2-2" data-name="Layer 2">
    <g>
      <rect class="cls-2" width="101.88" height="101.88" rx="11.79" ry="11.79"/>
      <g>
        <path class="cls-1" d="M190.93,38.32l-10.42,38.49h-13.04l-6.07-24.97-6.28,24.97h-12.97l-10.48-38.49h11.8l5.45,27.52,6.48-27.52h12.49l6.55,27.38,5.38-27.38h11.11Z"/>
        <path class="cls-1" d="M195.31,47.08c1.49-2.99,3.53-5.29,6.1-6.9,2.57-1.61,5.45-2.41,8.62-2.41,2.71,0,5.09.55,7.14,1.66,2.05,1.1,3.62,2.55,4.72,4.35v-5.45h11.8v38.49h-11.8v-5.45c-1.15,1.79-2.75,3.24-4.79,4.35-2.05,1.1-4.43,1.66-7.14,1.66-3.13,0-5.98-.82-8.55-2.45-2.58-1.63-4.61-3.96-6.1-6.97-1.5-3.01-2.24-6.5-2.24-10.45s.75-7.43,2.24-10.42ZM219.46,50.6c-1.63-1.7-3.62-2.55-5.97-2.55s-4.33.84-5.97,2.52c-1.63,1.68-2.45,3.99-2.45,6.93s.82,5.28,2.45,7c1.63,1.72,3.62,2.59,5.97,2.59s4.33-.85,5.97-2.55c1.63-1.7,2.45-4.02,2.45-6.97s-.82-5.26-2.45-6.97Z"/>
        <path class="cls-1" d="M248.94,75.63c-2.62-1.15-4.69-2.72-6.21-4.72-1.52-2-2.37-4.24-2.55-6.73h11.66c.14,1.33.76,2.41,1.86,3.24,1.1.83,2.46,1.24,4.07,1.24,1.47,0,2.61-.29,3.41-.86.8-.57,1.21-1.32,1.21-2.24,0-1.1-.58-1.92-1.72-2.45-1.15-.53-3.01-1.11-5.59-1.76-2.76-.64-5.06-1.32-6.9-2.04-1.84-.71-3.43-1.84-4.76-3.38-1.33-1.54-2-3.62-2-6.24,0-2.21.61-4.22,1.83-6.04,1.22-1.82,3.01-3.25,5.38-4.31,2.37-1.06,5.18-1.59,8.45-1.59,4.83,0,8.63,1.2,11.42,3.59,2.78,2.39,4.38,5.56,4.79,9.52h-10.9c-.18-1.33-.77-2.39-1.76-3.17-.99-.78-2.29-1.17-3.9-1.17-1.38,0-2.44.26-3.17.79-.74.53-1.1,1.25-1.1,2.17,0,1.1.59,1.93,1.76,2.48s3,1.1,5.48,1.66c2.85.74,5.17,1.46,6.97,2.17,1.79.71,3.37,1.86,4.73,3.45,1.36,1.59,2.06,3.71,2.1,6.38,0,2.25-.63,4.27-1.9,6.04-1.27,1.77-3.08,3.16-5.45,4.17-2.37,1.01-5.12,1.52-8.24,1.52-3.36,0-6.35-.57-8.97-1.72Z"/>
        <path class="cls-1" d="M281.6,32.49c-1.31-1.22-1.97-2.72-1.97-4.52s.66-3.37,1.97-4.59c1.31-1.22,3-1.83,5.07-1.83s3.69.61,5,1.83c1.31,1.22,1.97,2.75,1.97,4.59s-.66,3.3-1.97,4.52c-1.31,1.22-2.98,1.83-5,1.83s-3.76-.61-5.07-1.83ZM292.54,38.32v38.49h-11.79v-38.49h11.79Z"/>
        <path class="cls-1" d="M320.41,48.11h-6.35v28.7h-11.8v-28.7h-4.28v-9.79h4.28v-1.1c0-4.74,1.36-8.33,4.07-10.79,2.71-2.46,6.69-3.69,11.93-3.69.87,0,1.52.02,1.93.07v10c-2.25-.14-3.84.18-4.76.97-.92.78-1.38,2.18-1.38,4.21v.35h6.35v9.79Z"/>
        <path class="cls-1" d="M337.72,25.76v51.04h-11.79V25.76h11.79Z"/>
        <path class="cls-1" d="M353.62,74.95c-3.01-1.61-5.38-3.91-7.1-6.9s-2.59-6.48-2.59-10.49.87-7.44,2.62-10.45c1.75-3.01,4.14-5.32,7.17-6.93,3.04-1.61,6.44-2.41,10.21-2.41s7.17.8,10.21,2.41c3.04,1.61,5.43,3.92,7.17,6.93,1.75,3.01,2.62,6.5,2.62,10.45s-.89,7.44-2.66,10.45c-1.77,3.01-4.19,5.32-7.24,6.93-3.06,1.61-6.47,2.41-10.24,2.41s-7.16-.8-10.17-2.41ZM369.55,64.67c1.59-1.66,2.38-4.02,2.38-7.1s-.77-5.45-2.31-7.1c-1.54-1.66-3.44-2.48-5.69-2.48s-4.21.82-5.73,2.45c-1.52,1.63-2.28,4.01-2.28,7.14s.75,5.45,2.24,7.1c1.49,1.66,3.37,2.48,5.62,2.48s4.17-.83,5.76-2.48Z"/>
        <path class="cls-1" d="M445.46,38.32l-10.42,38.49h-13.04l-6.07-24.97-6.28,24.97h-12.97l-10.48-38.49h11.79l5.45,27.52,6.48-27.52h12.48l6.55,27.38,5.38-27.38h11.11Z"/>
      </g>
      <g>
        <polygon class="cls-3" points="25.87 60.04 20.76 54.88 51.46 24.48 81.16 54.93 75.97 60 51.37 34.79 25.87 60.04"/>
        <path class="cls-3" d="M50.94,77.4c-22.5,0-40.81-18.31-40.81-40.81h7.26c0,18.5,15.05,33.55,33.55,33.55s33.55-15.05,33.55-33.55h7.26c0,22.5-18.31,40.81-40.81,40.81Z"/>
      </g>
    </g>
  </g>
</svg>